<svg width="20" height="20" viewBox="0 0 20 20" fill="none" xmlns="http://www.w3.org/2000/svg">
<g clip-path="url(#clip0_55_133)">
<path fill-rule="evenodd" clip-rule="evenodd" d="M1.26254 2.09584C1.40593 1.95224 1.59679 1.86589 1.79932 1.853C2.00184 1.84011 2.20211 1.90157 2.36254 2.02584L2.44088 2.09584L3.67838 3.33334H13.3334C13.7539 3.33321 14.1588 3.49201 14.4672 3.77792C14.7755 4.06383 14.9643 4.45571 14.9959 4.87501L15 5.00001V6.84167L16.745 5.76584C16.8956 5.67304 17.0674 5.62012 17.2441 5.61206C17.4208 5.604 17.5966 5.64107 17.755 5.71977C17.9134 5.79847 18.0492 5.91622 18.1495 6.06191C18.2498 6.2076 18.3114 6.37644 18.3284 6.55251L18.3334 6.65251V13.3467C18.3334 13.5236 18.2885 13.6975 18.2027 13.8522C18.1169 14.0069 17.9932 14.1372 17.8431 14.2309C17.693 14.3245 17.5216 14.3784 17.3449 14.3874C17.1683 14.3964 16.9922 14.3603 16.8334 14.2825L16.745 14.2342L15 13.1583V14.6533L16.2375 15.8917C16.387 16.0416 16.4738 16.2429 16.4802 16.4545C16.4867 16.6661 16.4124 16.8723 16.2723 17.0311C16.1323 17.1899 15.9371 17.2894 15.7263 17.3095C15.5155 17.3296 15.305 17.2687 15.1375 17.1392L15.0592 17.07L1.26254 3.27501C1.10632 3.11873 1.01855 2.90681 1.01855 2.68584C1.01855 2.46487 1.10632 2.25211 1.26254 2.09584ZM1.66671 6.03917L3.33338 7.70584V15H10.6284L12.295 16.6667H3.33338C2.89135 16.6667 2.46743 16.4911 2.15487 16.1785C1.8423 15.866 1.66671 15.442 1.66671 15V6.03917ZM13.3334 5.00001H5.34504L13.3334 12.9883V5.00001ZM16.6667 7.77167L15 8.79834V11.2008L16.6667 12.2275V7.77167Z" fill="#FF4242"/>
</g>
<defs>
<clipPath id="clip0_55_133">
<rect width="20" height="20" fill="white"/>
</clipPath>
</defs>
</svg>
