<svg width="20" height="20" viewBox="0 0 20 20" fill="none" xmlns="http://www.w3.org/2000/svg">
<g clip-path="url(#clip0_1_933)">
<path d="M13.3332 3.33337C13.7537 3.33324 14.1586 3.49205 14.467 3.77795C14.7753 4.06386 14.9641 4.45574 14.9957 4.87504L14.9998 5.00004V6.84171L16.7448 5.76671C16.8954 5.67393 17.067 5.62099 17.2437 5.61289C17.4203 5.60479 17.5961 5.64178 17.7545 5.7204C17.9129 5.79901 18.0487 5.91665 18.149 6.06223C18.2494 6.20781 18.311 6.37655 18.3282 6.55254L18.3332 6.65254V13.3475C18.3331 13.5244 18.288 13.6982 18.2022 13.8528C18.1163 14.0074 17.9926 14.1376 17.8425 14.2311C17.6925 14.3247 17.5211 14.3784 17.3445 14.3874C17.1679 14.3964 16.9919 14.3603 16.8332 14.2825L16.7448 14.2342L14.9998 13.1584V15C15 15.4205 14.8412 15.8255 14.5553 16.1338C14.2693 16.4421 13.8775 16.631 13.4582 16.6625L13.3332 16.6667H3.33317C2.91269 16.6668 2.5077 16.508 2.19938 16.2221C1.89106 15.9362 1.70221 15.5443 1.67067 15.125L1.6665 15V5.00004C1.66637 4.57956 1.82518 4.17457 2.11108 3.86625C2.39699 3.55793 2.78887 3.36908 3.20817 3.33754L3.33317 3.33337H13.3332ZM13.3332 5.00004H3.33317V15H13.3332V5.00004ZM16.6665 7.77254L14.9998 8.79921V11.2017L16.6665 12.2284V7.77254Z" fill="#09244B"/>
</g>
<defs>
<clipPath id="clip0_1_933">
<rect width="20" height="20" fill="white"/>
</clipPath>
</defs>
</svg>
