<svg width="20" height="20" viewBox="0 0 20 20" fill="none" xmlns="http://www.w3.org/2000/svg">
<g clip-path="url(#clip0_1_922)">
<path fill-rule="evenodd" clip-rule="evenodd" d="M16.6667 1.66663C16.8406 1.6667 17.01 1.72112 17.1514 1.82228C17.2928 1.92345 17.3989 2.06628 17.4551 2.23079L17.5634 2.54579C17.6867 2.90725 17.8913 3.23565 18.1612 3.50579C18.4312 3.77592 18.7595 3.9806 19.1209 4.10413L19.4359 4.21163C19.6002 4.26794 19.7429 4.37419 19.8438 4.51554C19.9448 4.65688 19.9991 4.82625 19.9991 4.99996C19.9991 5.17367 19.9448 5.34304 19.8438 5.48438C19.7429 5.62573 19.6002 5.73198 19.4359 5.78829L19.1209 5.89663C18.7595 6.01996 18.4311 6.22446 18.1609 6.49445C17.8908 6.76444 17.6861 7.09273 17.5626 7.45413L17.4551 7.76913C17.3988 7.93346 17.2925 8.07608 17.1512 8.17706C17.0098 8.27804 16.8405 8.33232 16.6667 8.33232C16.493 8.33232 16.3237 8.27804 16.1823 8.17706C16.041 8.07608 15.9347 7.93346 15.8784 7.76913L15.7701 7.45413C15.6468 7.09266 15.4422 6.76426 15.1723 6.49413C14.9023 6.224 14.574 6.01932 14.2126 5.89579L13.8976 5.78829C13.7333 5.73198 13.5906 5.62573 13.4896 5.48438C13.3887 5.34304 13.3344 5.17367 13.3344 4.99996C13.3344 4.82625 13.3887 4.65688 13.4896 4.51554C13.5906 4.37419 13.7333 4.26794 13.8976 4.21163L14.2126 4.10329C14.574 3.97996 14.9024 3.77545 15.1726 3.50547C15.4427 3.23548 15.6474 2.90719 15.7709 2.54579L15.8784 2.23079C15.9346 2.06628 16.0407 1.92345 16.1821 1.82228C16.3235 1.72112 16.4929 1.6667 16.6667 1.66663ZM16.6667 4.32996C16.4696 4.57801 16.2448 4.8028 15.9967 4.99996C16.2451 5.19663 16.4692 5.42163 16.6667 5.66996C16.8634 5.42163 17.0884 5.19663 17.3367 4.99996C17.0887 4.8028 16.8639 4.57801 16.6667 4.32996ZM6.66675 2.98829C6.97924 2.67571 7.40309 2.50005 7.84508 2.49996H11.6667C11.8878 2.49996 12.0997 2.58776 12.256 2.74404C12.4123 2.90032 12.5001 3.11228 12.5001 3.33329C12.5001 3.55431 12.4123 3.76627 12.256 3.92255C12.0997 4.07883 11.8878 4.16663 11.6667 4.16663H7.84508L6.66675 5.34496C6.35426 5.65754 5.93041 5.8332 5.48841 5.83329H3.33341V15.8333H16.6667V10.8333C16.6667 10.6123 16.7545 10.4003 16.9108 10.244C17.0671 10.0878 17.2791 9.99996 17.5001 9.99996C17.7211 9.99996 17.9331 10.0878 18.0893 10.244C18.2456 10.4003 18.3334 10.6123 18.3334 10.8333V15.8333C18.3334 16.2753 18.1578 16.6992 17.8453 17.0118C17.5327 17.3244 17.1088 17.5 16.6667 17.5H3.33341C2.89139 17.5 2.46746 17.3244 2.1549 17.0118C1.84234 16.6992 1.66675 16.2753 1.66675 15.8333V5.83329C1.66675 5.39127 1.84234 4.96734 2.1549 4.65478C2.46746 4.34222 2.89139 4.16663 3.33341 4.16663H5.48841L6.66675 2.98829ZM7.50008 10.4166C7.50008 9.75358 7.76347 9.1177 8.23231 8.64886C8.70116 8.18002 9.33704 7.91663 10.0001 7.91663C10.6631 7.91663 11.299 8.18002 11.7678 8.64886C12.2367 9.1177 12.5001 9.75358 12.5001 10.4166C12.5001 11.0797 12.2367 11.7156 11.7678 12.1844C11.299 12.6532 10.6631 12.9166 10.0001 12.9166C9.33704 12.9166 8.70116 12.6532 8.23231 12.1844C7.76347 11.7156 7.50008 11.0797 7.50008 10.4166ZM10.0001 6.24996C8.89501 6.24996 7.83521 6.68895 7.0538 7.47035C6.2724 8.25175 5.83341 9.31156 5.83341 10.4166C5.83341 11.5217 6.2724 12.5815 7.0538 13.3629C7.83521 14.1443 8.89501 14.5833 10.0001 14.5833C11.1052 14.5833 12.165 14.1443 12.9464 13.3629C13.7278 12.5815 14.1667 11.5217 14.1667 10.4166C14.1667 9.31156 13.7278 8.25175 12.9464 7.47035C12.165 6.68895 11.1052 6.24996 10.0001 6.24996Z" fill="#181818"/>
</g>
<defs>
<clipPath id="clip0_1_922">
<rect width="20" height="20" fill="white"/>
</clipPath>
</defs>
</svg>
