<svg width="20" height="20" viewBox="0 0 20 20" fill="none" xmlns="http://www.w3.org/2000/svg">
<g clip-path="url(#clip0_31_70)">
<path fill-rule="evenodd" clip-rule="evenodd" d="M9.99993 11.1783L14.7141 15.8925C14.8713 16.0443 15.0818 16.1283 15.3003 16.1264C15.5188 16.1245 15.7278 16.0368 15.8823 15.8823C16.0368 15.7278 16.1244 15.5188 16.1263 15.3003C16.1282 15.0818 16.0442 14.8713 15.8924 14.7141L11.1783 9.99996L15.8924 5.28579C16.0442 5.12863 16.1282 4.91812 16.1263 4.69963C16.1244 4.48113 16.0368 4.27212 15.8823 4.11761C15.7278 3.96311 15.5188 3.87547 15.3003 3.87357C15.0818 3.87167 14.8713 3.95566 14.7141 4.10746L9.99993 8.82163L5.28577 4.10746C5.12789 3.95942 4.91861 3.8786 4.70221 3.88211C4.48581 3.88563 4.27926 3.9732 4.12628 4.12629C3.97329 4.27938 3.88587 4.48599 3.88251 4.7024C3.87915 4.9188 3.96011 5.12802 4.10827 5.28579L8.8216 9.99996L4.10743 14.7141C4.02784 14.791 3.96436 14.883 3.92068 14.9846C3.87701 15.0863 3.85402 15.1956 3.85306 15.3063C3.8521 15.4169 3.87318 15.5267 3.91508 15.6291C3.95698 15.7315 4.01886 15.8245 4.0971 15.9028C4.17535 15.981 4.26839 16.0429 4.37081 16.0848C4.47322 16.1267 4.58295 16.1478 4.6936 16.1468C4.80425 16.1459 4.9136 16.1229 5.01527 16.0792C5.11694 16.0355 5.2089 15.9721 5.28577 15.8925L9.99993 11.1783Z" fill="#FF4242"/>
</g>
<defs>
<clipPath id="clip0_31_70">
<rect width="20" height="20" fill="white"/>
</clipPath>
</defs>
</svg>
