<svg width="20" height="20" viewBox="0 0 20 20" fill="none" xmlns="http://www.w3.org/2000/svg">
<g clip-path="url(#clip0_31_65)">
<path d="M16.6667 12.5C16.8877 12.5 17.0996 12.5878 17.2559 12.744C17.4122 12.9003 17.5 13.1123 17.5 13.3333V16.6666C17.5 17.1087 17.3244 17.5326 17.0118 17.8451C16.6993 18.1577 16.2754 18.3333 15.8333 18.3333H4.16667C3.72464 18.3333 3.30072 18.1577 2.98816 17.8451C2.67559 17.5326 2.5 17.1087 2.5 16.6666V13.3333C2.5 13.1123 2.5878 12.9003 2.74408 12.744C2.90036 12.5878 3.11232 12.5 3.33333 12.5C3.55435 12.5 3.76631 12.5878 3.92259 12.744C4.07887 12.9003 4.16667 13.1123 4.16667 13.3333V16.6666H15.8333V13.3333C15.8333 13.1123 15.9211 12.9003 16.0774 12.744C16.2337 12.5878 16.4457 12.5 16.6667 12.5ZM10 1.66663C10.221 1.66663 10.433 1.75442 10.5893 1.9107C10.7455 2.06698 10.8333 2.27895 10.8333 2.49996V11.0358L12.9467 8.92246C13.0235 8.84287 13.1155 8.77938 13.2172 8.73571C13.3188 8.69203 13.4282 8.66905 13.5388 8.66808C13.6495 8.66712 13.7592 8.68821 13.8616 8.73011C13.964 8.77201 14.0571 8.83389 14.1353 8.91213C14.2136 8.99037 14.2755 9.08342 14.3174 9.18583C14.3593 9.28824 14.3803 9.39798 14.3794 9.50863C14.3784 9.61928 14.3554 9.72863 14.3118 9.8303C14.2681 9.93197 14.2046 10.0239 14.125 10.1008L10.7367 13.4891C10.6399 13.5859 10.5251 13.6626 10.3987 13.715C10.2723 13.7674 10.1368 13.7943 10 13.7943C9.86318 13.7943 9.72771 13.7674 9.60131 13.715C9.47491 13.6626 9.36006 13.5859 9.26333 13.4891L5.875 10.1008C5.79541 10.0239 5.73192 9.93197 5.68825 9.8303C5.64457 9.72863 5.62159 9.61928 5.62062 9.50863C5.61966 9.39798 5.64075 9.28824 5.68265 9.18583C5.72455 9.08342 5.78643 8.99037 5.86467 8.91213C5.94291 8.83389 6.03596 8.77201 6.13837 8.73011C6.24079 8.68821 6.35052 8.66712 6.46117 8.66808C6.57182 8.66905 6.68117 8.69203 6.78284 8.73571C6.88451 8.77938 6.97646 8.84287 7.05333 8.92246L9.16667 11.0358V2.49996C9.16667 2.27895 9.25446 2.06698 9.41074 1.9107C9.56702 1.75442 9.77899 1.66663 10 1.66663Z" fill="#181818"/>
</g>
<defs>
<clipPath id="clip0_31_65">
<rect width="20" height="20" fill="white"/>
</clipPath>
</defs>
</svg>
