<svg width="20" height="20" viewBox="0 0 20 20" fill="none" xmlns="http://www.w3.org/2000/svg">
<g clip-path="url(#clip0_6_987)">
<path fill-rule="evenodd" clip-rule="evenodd" d="M10.8333 2.49996C10.8333 2.27895 10.7455 2.06698 10.5893 1.9107C10.433 1.75442 10.221 1.66663 10 1.66663C9.77899 1.66663 9.56702 1.75442 9.41074 1.9107C9.25446 2.06698 9.16667 2.27895 9.16667 2.49996V17.5C9.16667 17.721 9.25446 17.9329 9.41074 18.0892C9.56702 18.2455 9.77899 18.3333 10 18.3333C10.221 18.3333 10.433 18.2455 10.5893 18.0892C10.7455 17.9329 10.8333 17.721 10.8333 17.5V2.49996ZM2.5 4.99996C2.5 4.55793 2.67559 4.13401 2.98816 3.82145C3.30072 3.50889 3.72464 3.33329 4.16667 3.33329H7.5V4.99996H4.16667V15H7.5V16.6666H4.16667C3.72464 16.6666 3.30072 16.491 2.98816 16.1785C2.67559 15.8659 2.5 15.442 2.5 15V4.99996ZM11.6667 4.16663C11.6667 3.94561 11.7545 3.73365 11.9107 3.57737C12.067 3.42109 12.279 3.33329 12.5 3.33329H13.3333C13.5543 3.33329 13.7663 3.42109 13.9226 3.57737C14.0789 3.73365 14.1667 3.94561 14.1667 4.16663C14.1667 4.38764 14.0789 4.5996 13.9226 4.75588C13.7663 4.91216 13.5543 4.99996 13.3333 4.99996H12.5C12.279 4.99996 12.067 4.91216 11.9107 4.75588C11.7545 4.5996 11.6667 4.38764 11.6667 4.16663ZM15 4.16663C15 3.94561 15.0878 3.73365 15.2441 3.57737C15.4004 3.42109 15.6123 3.33329 15.8333 3.33329C16.2754 3.33329 16.6993 3.50889 17.0118 3.82145C17.3244 4.13401 17.5 4.55793 17.5 4.99996C17.5 5.22097 17.4122 5.43293 17.2559 5.58921C17.0996 5.7455 16.8877 5.83329 16.6667 5.83329C16.4457 5.83329 16.2337 5.7455 16.0774 5.58921C15.9211 5.43293 15.8333 5.22097 15.8333 4.99996C15.6123 4.99996 15.4004 4.91216 15.2441 4.75588C15.0878 4.5996 15 4.38764 15 4.16663ZM16.6667 6.66663C16.8877 6.66663 17.0996 6.75442 17.2559 6.9107C17.4122 7.06698 17.5 7.27895 17.5 7.49996V8.33329C17.5 8.55431 17.4122 8.76627 17.2559 8.92255C17.0996 9.07883 16.8877 9.16663 16.6667 9.16663C16.4457 9.16663 16.2337 9.07883 16.0774 8.92255C15.9211 8.76627 15.8333 8.55431 15.8333 8.33329V7.49996C15.8333 7.27895 15.9211 7.06698 16.0774 6.9107C16.2337 6.75442 16.4457 6.66663 16.6667 6.66663ZM16.6667 10.8333C16.8877 10.8333 17.0996 10.9211 17.2559 11.0774C17.4122 11.2337 17.5 11.4456 17.5 11.6666V12.5C17.5 12.721 17.4122 12.9329 17.2559 13.0892C17.0996 13.2455 16.8877 13.3333 16.6667 13.3333C16.4457 13.3333 16.2337 13.2455 16.0774 13.0892C15.9211 12.9329 15.8333 12.721 15.8333 12.5V11.6666C15.8333 11.4456 15.9211 11.2337 16.0774 11.0774C16.2337 10.9211 16.4457 10.8333 16.6667 10.8333ZM16.6667 14.1666C16.8877 14.1666 17.0996 14.2544 17.2559 14.4107C17.4122 14.567 17.5 14.7789 17.5 15C17.5 15.442 17.3244 15.8659 17.0118 16.1785C16.6993 16.491 16.2754 16.6666 15.8333 16.6666C15.6123 16.6666 15.4004 16.5788 15.2441 16.4225C15.0878 16.2663 15 16.0543 15 15.8333C15 15.6123 15.0878 15.4003 15.2441 15.244C15.4004 15.0878 15.6123 15 15.8333 15C15.8333 14.7789 15.9211 14.567 16.0774 14.4107C16.2337 14.2544 16.4457 14.1666 16.6667 14.1666ZM11.6667 15.8333C11.6667 15.6123 11.7545 15.4003 11.9107 15.244C12.067 15.0878 12.279 15 12.5 15H13.3333C13.5543 15 13.7663 15.0878 13.9226 15.244C14.0789 15.4003 14.1667 15.6123 14.1667 15.8333C14.1667 16.0543 14.0789 16.2663 13.9226 16.4225C13.7663 16.5788 13.5543 16.6666 13.3333 16.6666H12.5C12.279 16.6666 12.067 16.5788 11.9107 16.4225C11.7545 16.2663 11.6667 16.0543 11.6667 15.8333Z" fill="#030506"/>
</g>
<defs>
<clipPath id="clip0_6_987">
<rect width="20" height="20" fill="white"/>
</clipPath>
</defs>
</svg>
