<svg width="70" height="70" viewBox="0 0 70 70" fill="none" xmlns="http://www.w3.org/2000/svg">
<g opacity="0.3" clip-path="url(#clip0_33_83)">
<path d="M34.9997 5.83337C51.1084 5.83337 64.1663 18.8913 64.1663 35C64.1663 51.1088 51.1084 64.1667 34.9997 64.1667C18.8909 64.1667 5.83301 51.1088 5.83301 35C5.83301 18.8913 18.8909 5.83337 34.9997 5.83337ZM26.1447 25.2292L25.9901 26.6875L25.9026 27.6588L25.7801 29.4088L25.7101 30.7505L25.6576 32.2234L25.6284 33.8246V35.5105L25.6576 37.1117L25.7101 38.5875L25.7801 39.9292L25.9026 41.6792L26.1097 43.8084L26.1476 44.1059C26.2121 44.6416 26.4004 45.1549 26.6976 45.6053C26.9948 46.0556 27.3927 46.4306 27.8599 46.7006C28.3271 46.9705 28.8507 47.128 29.3893 47.1606C29.9279 47.1932 30.4667 47.1 30.963 46.8884L32.293 46.2992L34.1918 45.398L35.3293 44.8263L36.5834 44.173L37.9426 43.435L39.3951 42.6125L40.833 41.7667L41.5068 41.3584L42.7609 40.5709L43.8926 39.8417L44.8901 39.1738L46.7947 37.8321L47.3109 37.45C47.743 37.126 48.0936 36.7058 48.335 36.2227C48.5764 35.7396 48.702 35.2069 48.7017 34.6668C48.7014 34.1267 48.5753 33.5942 48.3334 33.1113C48.0915 32.6285 47.7404 32.2086 47.308 31.885L46.1238 31.0188L45.3218 30.4559L44.3884 29.82L42.7405 28.7467L41.4922 27.965L40.1213 27.1425L38.6659 26.3025L37.2718 25.5296L35.968 24.8355L34.7722 24.223L33.1972 23.4559L31.9168 22.8667L31.2459 22.5692C31.1537 22.53 31.0613 22.4911 30.9688 22.4525C30.4725 22.2392 29.9333 22.1446 29.394 22.176C28.8546 22.2074 28.3301 22.3641 27.8619 22.6336C27.3936 22.9031 26.9947 23.2779 26.6966 23.7285C26.3985 24.1791 26.2096 24.6929 26.1447 25.2292Z" fill="white"/>
</g>
<defs>
<clipPath id="clip0_33_83">
<rect width="70" height="70" fill="white"/>
</clipPath>
</defs>
</svg>
